<svg id="Titles" xmlns="http://www.w3.org/2000/svg" viewBox="0 0 64 64">
  <defs>
    <style>
      .cls-1 {
        fill: none;
        stroke: #556a8a;
        stroke-miterlimit: 10;
        stroke-width: 2px;
      }
    </style>
  </defs>
  <title>i_link</title>
  <path class="cls-1" d="M17,40H15.5A13.54,13.54,0,0,1,2,26.5H2A13.54,13.54,0,0,1,15.5,13h14A13.54,13.54,0,0,1,43,26.5h0A13.54,13.54,0,0,1,29.5,40H28"/>
  <path class="cls-1" d="M47,24h1.5A13.54,13.54,0,0,1,62,37.5h0A13.54,13.54,0,0,1,48.5,51h-14A13.54,13.54,0,0,1,21,37.5h0A13.54,13.54,0,0,1,34.5,24H36"/>
</svg>
