<svg id="Titles" xmlns="http://www.w3.org/2000/svg" viewBox="0 0 64 64">
  <defs>
    <style>
      .cls-1 {
        fill: #fff;
      }

      .cls-2 {
        fill: #556a8a;
      }

      .cls-3 {
        fill: #2bc7f4;
      }
    </style>
  </defs>
  <title>i_offline</title>
  <g>
    <path class="cls-1" d="M12.78,17a14.56,14.56,0,0,0-2,5.5C5.16,23.83,1,29.49,1,36.09S5.84,52.9,18.44,51.94H47.7Z"/>
    <path class="cls-1" d="M55.2,51C58.76,49.6,63,46.33,63,38.41A11.6,11.6,0,0,0,48.19,27.27a10.64,10.64,0,0,0-16-11.37A11.61,11.61,0,0,0,22.83,11,11,11,0,0,0,17,12.73Z"/>
  </g>
  <g>
    <path class="cls-2" d="M17.7,13.46A10,10,0,0,1,22.83,12a10.62,10.62,0,0,1,8.51,4.49l.55.74.78-.49A9.62,9.62,0,0,1,47.22,27l-.38,1.65,1.63-.46A10.6,10.6,0,0,1,62,38.41C62,46,57.82,49,54.42,50.17L56,51.73c4.36-1.85,8-6,8-13.32A12.62,12.62,0,0,0,51.38,25.82a12.42,12.42,0,0,0-2,.16q.05-.55.05-1.09A11.65,11.65,0,0,0,32.39,14.6,12.49,12.49,0,0,0,22.83,10a12,12,0,0,0-6.58,2Z"/>
    <path class="cls-2" d="M46.7,51H18.36c-4.68.36-8.55-.91-11.5-3.64A16.08,16.08,0,0,1,2,36.09C2,30,5.81,24.71,11,23.5l.67-.15.1-.68a13.55,13.55,0,0,1,1.7-4.91l-1.45-1.45a15.42,15.42,0,0,0-2.12,5.41C4.14,23.41,0,29.33,0,36.09A17.91,17.91,0,0,0,5.51,48.83,16.21,16.21,0,0,0,16.78,53H48.7Z"/>
  </g>
  <rect class="cls-3" x="33" y="-4.18" width="2" height="76.37" transform="translate(-14.08 34) rotate(-45)"/>
</svg>
