<svg xmlns="http://www.w3.org/2000/svg" viewBox="0 0 64 64">            <g data-name="Layer 1">              <path d="M49.85 11.83v46.84a.57.57 0 0 1-.57.57h-34.5a1.37 1.37 0 0 1-1.37-1.37V11.83a1.37 1.37 0 0 1 1.37-1.37h33.7a1.37 1.37 0 0 1 1.37 1.37z" fill-opacity=".3" fill="#e3e3e3"></path>              <path d="M49.57 11.83v46.84a.57.57 0 0 1-.57.57H14.5a1.37 1.37 0 0 1-1.37-1.37v-46a1.37 1.37 0 0 1 1.37-1.37h33.7a1.37 1.37 0 0 1 1.37 1.33z" fill="none" stroke="#c8c8c8" stroke-miterlimit="10" stroke-width="1.25"></path>              <path d="M41.47 15.14H45v35.11a3.56 3.56 0 0 0 3.53 3.06h-27.9a3.57 3.57 0 0 1-3.57-3.57v-34.6h4.52" fill="#c8c8c8" fill-opacity=".8"></path>              <path d="M48.19 45.29H23.87v4.91a3 3 0 0 1 0 .52 3.6 3.6 0 0 1-1.71 2.59H48.21c2.56-.27 2.68-3 2.68-3.07v-4.95z" opacity=".8" fill="#e3e3e3"></path>              <path d="M30.08 31.55h-4.71a.26.26 0 0 1-.27-.24.17.17 0 0 1 0-.1l5.65-11.28a.26.26 0 0 1 .24-.14h5.61a.25.25 0 0 1 .26.24.2.2 0 0 1 0 .13L30.17 29h6.48a.26.26 0 0 1 .27.24.24.24 0 0 1-.07.16L26.09 40.67c-.1.06-.81.66-.46-.25z" class="has-fill-current-color" fill="#0079d6"></path>              <path d="M34.52 8.23a1.55 1.55 0 0 0 0-.22A3.25 3.25 0 1 0 28 8a1.55 1.55 0 0 0 0 .22h-6.59v8.44H41.3V8.23z" fill="#919191"></path>            </g>        </svg>