<svg id="Titles" xmlns="http://www.w3.org/2000/svg" viewBox="0 0 64 64">
  <defs>
    <style>
      .cls-1 {
        fill: #ace8f9;
      }

      .cls-2 {
        fill: #55d2f6;
      }

      .cls-3 {
        fill: none;
        stroke: #556a8a;
        stroke-miterlimit: 10;
        stroke-width: 2px;
      }

      .cls-4 {
        fill: #556a8a;
      }
    </style>
  </defs>
  <title>i_progressive</title>
  <polygon class="cls-1" points="63 7.11 63 29.11 56 29.11 56 19.8 38.8 37 26.27 24.46 6.8 43.93 4.81 41.94 1.15 38.27 26.27 13.15 38.8 25.68 50.38 14.11 41 14.11 41 7.11 63 7.11"/>
  <polygon class="cls-2" points="63 9 63 29.11 56 29.11 56 19.8 38.8 37 26.27 24.46 6.8 43.93 4.81 41.94 26.27 20.48 38.8 33.01 63 9"/>
  <polygon class="cls-3" points="41 7.11 41 14.11 50.38 14.11 38.8 25.68 26.27 13.15 1.21 38.21 6.87 43.86 26.27 24.46 38.8 37 56 19.8 56 29.11 63 29.11 63 7.11 41 7.11"/>
  <rect class="cls-4" y="48" width="64" height="5"/>
</svg>
