<svg id="Titles" xmlns="http://www.w3.org/2000/svg" viewBox="0 0 64 64">
  <defs>
    <style>
      .cls-1 {
        fill: #2bc7f4;
      }

      .cls-2 {
        fill: #556a8a;
      }

      .cls-3 {
        fill: #fff;
      }

      .cls-4 {
        fill: #e5e5e5;
      }

      .cls-5 {
        fill: none;
        stroke: #556a8a;
        stroke-miterlimit: 10;
        stroke-width: 2px;
      }
    </style>
  </defs>
  <title>i_push-notification</title>
  <circle class="cls-1" cx="32" cy="55" r="9"/>
  <path class="cls-2" d="M32,0a5,5,0,1,0,5,5A5,5,0,0,0,32,0Zm0,8a3,3,0,1,1,3-3A3,3,0,0,1,32,8Z"/>
  <path class="cls-3" d="M60,50.38V55H4V50.38H5a8.34,8.34,0,0,0,8-8.43V24.3C13,13.64,20.62,5,30.75,5h2.5C43.38,5,51,13.64,51,24.3V41.95a8.34,8.34,0,0,0,8,8.43Z"/>
  <path class="cls-4" d="M60,50.42v4.92H33V5h.25C43.38,5,51,13.68,51,24.34V42a8.34,8.34,0,0,0,8,8.43Z"/>
  <path class="cls-5" d="M60,50.38V55H4V50.38H5a8.34,8.34,0,0,0,8-8.43V24.3C13,13.64,20.62,5,30.75,5h2.5C43.38,5,51,13.64,51,24.3V41.95a8.34,8.34,0,0,0,8,8.43Z"/>
  <circle class="cls-1" cx="48" cy="20" r="15"/>
  <path class="cls-3" d="M53.82,27H43.72V25.75a4.67,4.67,0,0,1,.21-1.43,5.79,5.79,0,0,1,.57-1.26A7,7,0,0,1,45.34,22q.48-.52,1-1T47.5,20l1.12-.92q.52-.44.94-.86a5.76,5.76,0,0,0,.73-.87,4,4,0,0,0,.47-.95,3.37,3.37,0,0,0,.17-1.08,2.92,2.92,0,0,0-.2-1.12,2.18,2.18,0,0,0-.55-.8,2.36,2.36,0,0,0-.84-.48,3.29,3.29,0,0,0-1.06-.16,4.86,4.86,0,0,0-2,.46,6.87,6.87,0,0,0-2,1.38V12.1a8,8,0,0,1,1-.65,6.7,6.7,0,0,1,1-.46,6.37,6.37,0,0,1,1.13-.28,8.57,8.57,0,0,1,1.27-.09,6.43,6.43,0,0,1,2,.29,4.2,4.2,0,0,1,1.52.84,3.69,3.69,0,0,1,1,1.39,5,5,0,0,1,.34,1.91,5.94,5.94,0,0,1-.24,1.76,5.68,5.68,0,0,1-.69,1.45,7.57,7.57,0,0,1-1.07,1.28q-.63.61-1.4,1.25l-1.3,1q-.65.5-1.16,1a5.47,5.47,0,0,0-.84,1,1.71,1.71,0,0,0-.32,1v.06h7.27Z"/>
</svg>
