<svg id="Titles" xmlns="http://www.w3.org/2000/svg" viewBox="0 0 64 64">
  <defs>
    <style>
      .cls-1 {
        fill: #55d2f6;
      }

      .cls-1, .cls-2, .cls-3 {
        fill-rule: evenodd;
      }

      .cls-2 {
        fill: #ace8f9;
      }

      .cls-3 {
        fill: none;
        stroke: #556a8a;
        stroke-miterlimit: 10;
        stroke-width: 2px;
      }
    </style>
  </defs>
  <title>i_security</title>
  <g>
    <path class="cls-1" d="M54.35,6.82A.92.92,0,0,0,53.49,6h-1.3a16.22,16.22,0,0,1-9.08,3c-4.76,0-7.79-2.59-10-4.31-.43-.43-.87-1.24-1.3-1.67H30.13c-.43.43-.86,1.24-1.3,1.67C26.67,6.39,23.64,9,19.32,9A17.49,17.49,0,0,1,9.8,6H8.51c-.44,0-.44.43-.87.86C-.14,27.52,9.8,51.65,30.56,62h1.3C52.19,51.65,62.14,27.52,54.35,6.82Z"/>
    <path class="cls-2" d="M31.86,62H31V3h.86c.43.43.87,1.24,1.3,1.67C35.32,6.39,38.35,9,43.11,9a16.22,16.22,0,0,0,9.08-3h1.3a.92.92,0,0,1,.86.86C62.14,27.52,52.19,51.65,31.86,62Z"/>
    <path class="cls-3" d="M31,62h-.43C9.8,51.65-.14,27.52,7.64,6.82c.43-.43.43-.86.87-.86H9.8a17.52,17.52,0,0,0,9.52,3c4.33,0,7.35-2.59,9.52-4.31.43-.43.87-1.24,1.3-1.67h1.73c.43.43.87,1.24,1.3,1.67C35.32,6.39,38.35,9,43.11,9a16.24,16.24,0,0,0,9.08-3h1.3a.93.93,0,0,1,.87.86C62.14,27.52,52.19,51.65,31.86,62Z"/>
  </g>
</svg>
